<?xml version="1.0" standalone="no"?>
<!DOCTYPE svg PUBLIC "-//W3C//DTD SVG 20010904//EN"
 "http://www.w3.org/TR/2001/REC-SVG-20010904/DTD/svg10.dtd">
<svg version="1.0" xmlns="http://www.w3.org/2000/svg"
 width="512.000000pt" height="512.000000pt" viewBox="0 0 512.000000 512.000000"
 preserveAspectRatio="xMidYMid meet">
<metadata>
Created by potrace 1.14, written by Peter Selinger 2001-2017
</metadata>
<g transform="translate(0.000000,512.000000) scale(0.100000,-0.100000)"
fill="#000000" stroke="none">
<path d="M1090 4780 c-231 -60 -383 -224 -437 -470 -4 -19 -8 -854 -10 -1855
-3 -2022 -7 -1884 64 -2035 60 -125 161 -208 298 -244 74 -19 222 -15 285 8
119 44 214 130 266 241 66 139 65 104 65 1403 0 644 1 1172 3 1172 7 0 86
-121 86 -131 0 -5 5 -9 10 -9 6 0 10 -5 10 -10 0 -12 41 -73 53 -78 4 -2 7 -8
7 -14 0 -5 13 -28 29 -51 16 -23 85 -127 153 -232 68 -104 178 -272 243 -373
66 -100 125 -190 130 -200 6 -9 32 -51 60 -92 27 -41 93 -142 147 -225 53 -82
101 -155 105 -161 4 -5 13 -18 18 -27 10 -17 47 -75 330 -507 225 -342 298
-441 395 -537 77 -76 150 -122 250 -157 78 -28 96 -30 215 -30 142 0 188 9
282 56 86 42 156 115 203 213 79 161 74 27 74 2070 1 1979 3 1880 -56 2024
-50 119 -159 216 -283 251 -53 15 -207 20 -264 8 -61 -12 -160 -68 -211 -119
-49 -49 -99 -133 -115 -194 -5 -16 -9 -32 -10 -35 -5 -14 -16 -79 -19 -105 -2
-16 -4 -570 -5 -1229 l-1 -1200 -168 255 c-157 237 -256 386 -727 1099 -527
798 -622 941 -663 1005 -167 259 -201 306 -266 370 -81 80 -162 126 -258 148
-88 19 -208 18 -288 -3z"/>
</g>
</svg>
